<?xml version="1.0" encoding="utf-8"?>
<svg viewBox="-233.42 0.1049 1406.4941 585.1998" xmlns="http://www.w3.org/2000/svg">
  <path d="M -217.753 391.404 C -222.176 391.404 -225.888 389.898 -228.901 386.885 C -231.914 383.872 -233.42 380.16 -233.42 375.738 L -233.42 171.767 C -233.42 167.151 -231.914 163.385 -228.901 160.469 C -225.888 157.553 -222.176 156.1 -217.753 156.1 L -157.496 156.1 C -142.432 156.1 -129.078 159.415 -117.425 166.043 C -105.772 172.671 -96.69 181.86 -90.159 193.61 C -83.627 205.361 -80.367 218.865 -80.367 234.133 C -80.367 248.8 -83.627 261.852 -90.159 273.301 C -96.69 284.749 -105.772 293.691 -117.425 300.115 C -129.078 306.539 -142.432 309.756 -157.496 309.756 L -202.086 309.756 L -202.086 375.738 C -202.086 380.16 -203.539 383.872 -206.455 386.885 C -209.371 389.898 -213.137 391.404 -217.753 391.404 Z M -202.086 280.833 L -157.496 280.833 C -148.253 280.833 -140.118 278.82 -133.092 274.807 C -126.065 270.793 -120.535 265.263 -116.521 258.236 C -112.508 251.21 -110.495 243.172 -110.495 234.133 C -110.495 224.492 -112.508 216.002 -116.521 208.675 C -120.535 201.347 -126.065 195.569 -133.092 191.351 C -140.118 187.133 -148.253 185.024 -157.496 185.024 L -202.086 185.024 L -202.086 280.833 Z M -1.129 233.23 C 8.911 227.602 19.962 224.794 32.013 224.794 C 44.064 224.794 53.049 226.752 58.978 230.669 C 64.907 234.585 67.167 239.255 65.757 244.678 C 65.154 247.487 64.003 249.65 62.292 251.156 C 60.581 252.662 58.623 253.62 56.417 254.018 C 54.211 254.416 51.801 254.32 49.186 253.717 C 36.328 251.102 24.782 250.909 14.538 253.114 C 4.295 255.32 -3.786 259.441 -9.715 265.467 C -15.644 271.493 -18.603 279.122 -18.603 288.365 L -18.603 376.34 C -18.603 381.161 -19.862 384.873 -22.369 387.488 C -24.876 390.102 -28.642 391.404 -33.667 391.404 C -38.488 391.404 -42.2 390.145 -44.815 387.638 C -47.43 385.131 -48.732 381.365 -48.732 376.34 L -48.732 241.666 C -48.732 236.845 -47.43 233.133 -44.815 230.518 C -42.2 227.903 -38.488 226.601 -33.667 226.601 C -28.642 226.601 -24.876 227.86 -22.369 230.367 C -19.862 232.874 -18.603 236.641 -18.603 241.666 L -18.603 247.239 C -13.707 241.687 -7.886 237.017 -1.129 233.23 Z M 160.35 392.61 C 144.081 392.61 129.716 389.048 117.266 381.914 C 104.817 374.78 95.025 364.945 87.891 352.388 C 80.757 339.831 77.195 325.423 77.195 309.153 C 77.195 292.68 80.757 278.175 87.891 265.618 C 95.025 253.061 104.817 243.226 117.266 236.092 C 129.716 228.958 144.081 225.396 160.35 225.396 C 176.415 225.396 190.683 228.958 203.133 236.092 C 215.582 243.226 225.374 253.061 232.508 265.618 C 239.642 278.175 243.204 292.68 243.204 309.153 C 243.204 325.423 239.685 339.831 232.659 352.388 C 225.632 364.945 215.884 374.78 203.434 381.914 C 190.985 389.048 176.62 392.61 160.35 392.61 Z M 160.35 365.494 C 170.798 365.494 180.031 363.084 188.069 358.263 C 196.106 353.442 202.38 346.814 206.899 338.378 C 211.418 329.942 213.678 320.204 213.678 309.153 C 213.678 298.103 211.418 288.311 206.899 279.778 C 202.38 271.245 196.106 264.563 188.069 259.743 C 180.031 254.922 170.798 252.512 160.35 252.512 C 149.902 252.512 140.67 254.922 132.632 259.743 C 124.594 264.563 118.267 271.245 113.651 279.778 C 109.035 288.311 106.721 298.103 106.721 309.153 C 106.721 320.204 109.035 329.942 113.651 338.378 C 118.267 346.814 124.594 353.442 132.632 358.263 C 140.67 363.084 149.902 365.494 160.35 365.494 Z M 246.819 461.905 C 242.397 461.905 238.781 460.453 235.973 457.537 C 233.165 454.621 231.755 450.962 231.755 446.54 C 231.755 441.924 233.165 438.2 235.973 435.392 C 238.781 432.584 242.397 431.174 246.819 431.174 C 254.857 431.174 261.884 429.42 267.909 425.902 C 273.935 422.383 278.702 417.616 282.22 411.591 C 285.739 405.565 287.493 398.635 287.493 390.802 L 287.493 241.967 C 287.493 237.351 288.946 233.628 291.862 230.819 C 294.778 228.011 298.436 226.601 302.859 226.601 C 307.475 226.601 311.198 228.011 314.006 230.819 C 316.815 233.628 318.224 237.351 318.224 241.967 L 318.224 390.802 C 318.224 404.661 315.158 416.917 309.035 427.559 C 302.912 438.2 294.519 446.593 283.878 452.716 C 273.236 458.839 260.883 461.905 246.819 461.905 Z M 440.848 392.61 C 424.18 392.61 409.363 389.048 396.408 381.914 C 383.453 374.78 373.306 364.945 365.978 352.388 C 358.65 339.831 354.981 325.423 354.981 309.153 C 354.981 292.68 358.446 278.175 365.376 265.618 C 372.305 253.061 381.892 243.226 394.148 236.092 C 406.404 228.958 420.457 225.396 436.328 225.396 C 451.995 225.396 465.456 228.861 476.701 235.79 C 487.945 242.72 496.532 252.264 502.461 264.413 C 508.39 276.561 511.349 290.571 511.349 306.442 C 511.349 310.262 510.047 313.425 507.432 315.932 C 504.817 318.44 501.503 319.698 497.49 319.698 L 382.915 319.698 C 384.023 326.563 386.261 332.89 389.629 338.679 C 394.654 347.32 401.584 354.142 410.418 359.167 C 419.252 364.192 429.399 366.699 440.848 366.699 C 447.078 366.699 453.448 365.548 459.979 363.234 C 466.511 360.921 471.783 358.263 475.797 355.25 C 478.81 353.044 482.07 351.882 485.589 351.785 C 489.107 351.689 492.163 352.743 494.778 354.949 C 498.189 357.962 499.997 361.276 500.201 364.891 C 500.406 368.507 498.792 371.616 495.381 374.231 C 488.548 379.654 480.069 384.077 469.922 387.488 C 459.775 390.899 450.091 392.61 440.848 392.61 Z M 478.207 277.067 C 474.387 269.136 468.964 262.852 461.938 258.236 C 454.911 253.62 446.368 251.307 436.328 251.307 C 424.88 251.307 415.088 253.814 406.953 258.839 C 398.818 263.864 392.642 270.74 388.424 279.477 C 386.014 284.47 384.292 289.85 383.259 295.596 L 483.609 295.596 C 482.727 288.881 480.919 282.705 478.207 277.067 Z M 619.198 392.61 C 603.133 392.61 588.822 388.94 576.265 381.613 C 563.708 374.285 553.873 364.343 546.739 351.785 C 539.605 339.228 536.043 325.025 536.043 309.153 C 536.043 292.884 539.562 278.422 546.588 265.768 C 553.615 253.114 563.256 243.226 575.512 236.092 C 587.768 228.958 601.821 225.396 617.692 225.396 C 629.539 225.396 640.385 227.656 650.231 232.175 C 660.077 236.694 668.911 243.473 676.744 252.512 C 679.553 255.729 680.564 259.043 679.757 262.454 C 678.95 265.865 676.744 268.878 673.129 271.493 C 670.32 273.505 667.2 274.151 663.789 273.451 C 660.378 272.752 657.257 270.987 654.449 268.179 C 644.603 257.73 632.358 252.512 617.692 252.512 C 607.448 252.512 598.41 254.868 590.576 259.592 C 582.743 264.316 576.62 270.89 572.198 279.326 C 567.775 287.762 565.57 297.705 565.57 309.153 C 565.57 320 567.829 329.641 572.348 338.077 C 576.868 346.513 583.141 353.195 591.179 358.112 C 599.217 363.03 608.557 365.494 619.198 365.494 C 626.225 365.494 632.401 364.644 637.728 362.933 C 643.054 361.222 647.918 358.564 652.34 354.949 C 655.557 352.334 658.871 350.882 662.282 350.58 C 665.693 350.279 668.706 351.237 671.321 353.442 C 674.732 356.251 676.647 359.414 677.045 362.933 C 677.444 366.452 676.238 369.615 673.43 372.423 C 658.968 385.884 640.891 392.61 619.198 392.61 Z M 785.509 391.404 C 775.469 391.404 766.431 388.843 758.393 383.722 C 750.355 378.6 744.028 371.616 739.412 362.782 C 734.796 353.948 732.482 344.006 732.482 332.955 L 732.482 258.538 L 718.623 258.538 C 714.405 258.538 710.994 257.332 708.379 254.922 C 705.764 252.512 704.462 249.499 704.462 245.884 C 704.462 241.87 705.764 238.653 708.379 236.242 C 710.994 233.832 714.405 232.627 718.623 232.627 L 732.482 232.627 L 732.482 189.242 C 732.482 184.819 733.892 181.204 736.7 178.396 C 739.509 175.587 743.124 174.178 747.546 174.178 C 751.969 174.178 755.584 175.587 758.393 178.396 C 761.201 181.204 762.611 184.819 762.611 189.242 L 762.611 232.627 L 788.22 232.627 C 792.438 232.627 795.849 233.832 798.464 236.242 C 801.079 238.653 802.381 241.87 802.381 245.884 C 802.381 249.499 801.079 252.512 798.464 254.922 C 795.849 257.332 792.438 258.538 788.22 258.538 L 762.611 258.538 L 762.611 332.955 C 762.611 340.993 764.817 347.718 769.239 353.141 C 773.662 358.564 779.085 361.276 785.509 361.276 L 795.752 361.276 C 799.368 361.276 802.434 362.685 804.941 365.494 C 807.449 368.302 808.708 371.918 808.708 376.34 C 808.708 380.763 807.05 384.378 803.736 387.186 C 800.422 389.995 796.15 391.404 790.932 391.404 L 785.509 391.404 Z" style="fill: rgb(51, 51, 51); paint-order: fill; stroke: rgb(51, 51, 51); stroke-linecap: square; stroke-width: 0.92935px;" transform="matrix(1, 0, 0, 1, 0, 5.684341886080802e-14)"/>
  <path d="M 4.361 -19.605 L 9.598 -12.264 L 14.861 -19.605 L 18.252 -19.605 L 11.307 -9.885 L 18.402 0 L 15.012 0 L 9.598 -7.533 L 4.225 0 L 0.834 0 L 7.93 -9.885 L 0.984 -19.605 Z" transform="matrix(17.426992, 0.000484, -0.000484, 17.426945, 837.825951, 445.884748)" style="fill: rgb(96, 165, 250);"/>
  <ellipse style="fill: rgb(96, 165, 250); stroke: rgb(96, 165, 250); stroke-width: 6px;" cx="301.3" cy="183.8" rx="25.065" ry="25.065" transform="matrix(1, 0, 0, 1, 0, 5.684341886080802e-14)"/>
</svg>
